<mxfile host="app.diagrams.net" agent="Mozilla/5.0 (Windows NT 10.0; Win64; x64) AppleWebKit/537.36 (KHTML, like Gecko) Chrome/137.0.0.0 Safari/537.36 Edg/137.0.0.0" version="27.1.4">
  <diagram name="Page-1" id="zlcAlIC31FUe1IHTbNbq">
    <mxGraphModel dx="1293" dy="675" grid="1" gridSize="10" guides="1" tooltips="1" connect="1" arrows="1" fold="1" page="1" pageScale="1" pageWidth="827" pageHeight="1169" math="0" shadow="0">
      <root>
        <mxCell id="0" />
        <mxCell id="1" parent="0" />
        <mxCell id="aqZANyk-lZFDYj4VcKG3-22" value="" style="rounded=0;whiteSpace=wrap;html=1;" parent="1" vertex="1">
          <mxGeometry x="70" y="40" width="720" height="720" as="geometry" />
        </mxCell>
        <mxCell id="gxD8c2a9SxIbAqhHgufa-9" value="PrintController" style="swimlane;fontStyle=1;align=center;verticalAlign=top;childLayout=stackLayout;horizontal=1;startSize=26;horizontalStack=0;resizeParent=1;resizeParentMax=0;resizeLast=0;collapsible=1;marginBottom=0;whiteSpace=wrap;html=1;" parent="1" vertex="1">
          <mxGeometry x="340" y="120" width="210" height="126" as="geometry" />
        </mxCell>
        <mxCell id="gxD8c2a9SxIbAqhHgufa-11" value="" style="line;strokeWidth=1;fillColor=none;align=left;verticalAlign=middle;spacingTop=-1;spacingLeft=3;spacingRight=3;rotatable=0;labelPosition=right;points=[];portConstraint=eastwest;strokeColor=inherit;" parent="gxD8c2a9SxIbAqhHgufa-9" vertex="1">
          <mxGeometry y="26" width="210" height="8" as="geometry" />
        </mxCell>
        <mxCell id="gxD8c2a9SxIbAqhHgufa-12" value="+submitJob(Print Parameters params, String imagePath)&lt;div&gt;+start()&lt;/div&gt;&lt;div&gt;-processNotifications()&lt;/div&gt;" style="text;strokeColor=none;fillColor=none;align=left;verticalAlign=top;spacingLeft=4;spacingRight=4;overflow=hidden;rotatable=0;points=[[0,0.5],[1,0.5]];portConstraint=eastwest;whiteSpace=wrap;html=1;" parent="gxD8c2a9SxIbAqhHgufa-9" vertex="1">
          <mxGeometry y="34" width="210" height="92" as="geometry" />
        </mxCell>
        <mxCell id="aqZANyk-lZFDYj4VcKG3-1" value="JobQueueManager&lt;span style=&quot;color: rgba(0, 0, 0, 0); font-family: monospace; font-size: 0px; font-weight: 400; text-align: start; text-wrap-mode: nowrap;&quot;&gt;%3CmxGraphModel%3E%3Croot%3E%3CmxCell%20id%3D%220%22%2F%3E%3CmxCell%20id%3D%221%22%20parent%3D%220%22%2F%3E%3CmxCell%20id%3D%222%22%20value%3D%22Controller%22%20style%3D%22swimlane%3BfontStyle%3D1%3Balign%3Dcenter%3BverticalAlign%3Dtop%3BchildLayout%3DstackLayout%3Bhorizontal%3D1%3BstartSize%3D26%3BhorizontalStack%3D0%3BresizeParent%3D1%3BresizeParentMax%3D0%3BresizeLast%3D0%3Bcollapsible%3D1%3BmarginBottom%3D0%3BwhiteSpace%3Dwrap%3Bhtml%3D1%3B%22%20vertex%3D%221%22%20parent%3D%221%22%3E%3CmxGeometry%20x%3D%22180%22%20y%3D%22122%22%20width%3D%22160%22%20height%3D%22124%22%20as%3D%22geometry%22%2F%3E%3C%2FmxCell%3E%3CmxCell%20id%3D%223%22%20value%3D%22-Queue_Manager%26lt%3Bdiv%26gt%3B-Picture_treatment%26lt%3B%2Fdiv%26gt%3B%26lt%3Bdiv%26gt%3B%2BUser_interact%26lt%3B%2Fdiv%26gt%3B%22%20style%3D%22text%3BstrokeColor%3Dnone%3BfillColor%3Dnone%3Balign%3Dleft%3BverticalAlign%3Dtop%3BspacingLeft%3D4%3BspacingRight%3D4%3Boverflow%3Dhidden%3Brotatable%3D0%3Bpoints%3D%5B%5B0%2C0.5%5D%2C%5B1%2C0.5%5D%5D%3BportConstraint%3Deastwest%3BwhiteSpace%3Dwrap%3Bhtml%3D1%3B%22%20vertex%3D%221%22%20parent%3D%222%22%3E%3CmxGeometry%20y%3D%2226%22%20width%3D%22160%22%20height%3D%2264%22%20as%3D%22geometry%22%2F%3E%3C%2FmxCell%3E%3CmxCell%20id%3D%224%22%20value%3D%22%22%20style%3D%22line%3BstrokeWidth%3D1%3BfillColor%3Dnone%3Balign%3Dleft%3BverticalAlign%3Dmiddle%3BspacingTop%3D-1%3BspacingLeft%3D3%3BspacingRight%3D3%3Brotatable%3D0%3BlabelPosition%3Dright%3Bpoints%3D%5B%5D%3BportConstraint%3Deastwest%3BstrokeColor%3Dinherit%3B%22%20vertex%3D%221%22%20parent%3D%222%22%3E%3CmxGeometry%20y%3D%2290%22%20width%3D%22160%22%20height%3D%228%22%20as%3D%22geometry%22%2F%3E%3C%2FmxCell%3E%3CmxCell%20id%3D%225%22%20value%3D%22%2B%20method(type)%3A%20type%22%20style%3D%22text%3BstrokeColor%3Dnone%3BfillColor%3Dnone%3Balign%3Dleft%3BverticalAlign%3Dtop%3BspacingLeft%3D4%3BspacingRight%3D4%3Boverflow%3Dhidden%3Brotatable%3D0%3Bpoints%3D%5B%5B0%2C0.5%5D%2C%5B1%2C0.5%5D%5D%3BportConstraint%3Deastwest%3BwhiteSpace%3Dwrap%3Bhtml%3D1%3B%22%20vertex%3D%221%22%20parent%3D%222%22%3E%3CmxGeometry%20y%3D%2298%22%20width%3D%22160%22%20height%3D%2226%22%20as%3D%22geometry%22%2F%3E%3C%2FmxCell%3E%3C%2Froot%3E%3C%2FmxGraphModel%3E&lt;/span&gt;" style="swimlane;fontStyle=1;align=center;verticalAlign=top;childLayout=stackLayout;horizontal=1;startSize=26;horizontalStack=0;resizeParent=1;resizeParentMax=0;resizeLast=0;collapsible=1;marginBottom=0;whiteSpace=wrap;html=1;" parent="1" vertex="1">
          <mxGeometry x="90" y="80" width="200" height="116" as="geometry" />
        </mxCell>
        <mxCell id="aqZANyk-lZFDYj4VcKG3-3" value="" style="line;strokeWidth=1;fillColor=none;align=left;verticalAlign=middle;spacingTop=-1;spacingLeft=3;spacingRight=3;rotatable=0;labelPosition=right;points=[];portConstraint=eastwest;strokeColor=inherit;" parent="aqZANyk-lZFDYj4VcKG3-1" vertex="1">
          <mxGeometry y="26" width="200" height="8" as="geometry" />
        </mxCell>
        <mxCell id="aqZANyk-lZFDYj4VcKG3-4" value="+addJob(job: PrintJob)&lt;div&gt;+GetNextJob(): PrintJob&lt;/div&gt;&lt;div&gt;+GetQueueStatus():&amp;nbsp;List&amp;lt;PrintJob&amp;gt;&lt;/div&gt;" style="text;strokeColor=none;fillColor=none;align=left;verticalAlign=top;spacingLeft=4;spacingRight=4;overflow=hidden;rotatable=0;points=[[0,0.5],[1,0.5]];portConstraint=eastwest;whiteSpace=wrap;html=1;" parent="aqZANyk-lZFDYj4VcKG3-1" vertex="1">
          <mxGeometry y="34" width="200" height="82" as="geometry" />
        </mxCell>
        <mxCell id="aqZANyk-lZFDYj4VcKG3-5" value="ImageProcessor" style="swimlane;fontStyle=1;align=center;verticalAlign=top;childLayout=stackLayout;horizontal=1;startSize=26;horizontalStack=0;resizeParent=1;resizeParentMax=0;resizeLast=0;collapsible=1;marginBottom=0;whiteSpace=wrap;html=1;" parent="1" vertex="1">
          <mxGeometry x="80" y="310" width="250" height="136" as="geometry" />
        </mxCell>
        <mxCell id="aqZANyk-lZFDYj4VcKG3-7" value="" style="line;strokeWidth=1;fillColor=none;align=left;verticalAlign=middle;spacingTop=-1;spacingLeft=3;spacingRight=3;rotatable=0;labelPosition=right;points=[];portConstraint=eastwest;strokeColor=inherit;" parent="aqZANyk-lZFDYj4VcKG3-5" vertex="1">
          <mxGeometry y="26" width="250" height="8" as="geometry" />
        </mxCell>
        <mxCell id="aqZANyk-lZFDYj4VcKG3-8" value="+rgbToCymk(int r, int g, int b) : CMYKPixel&lt;br&gt;+applyLayout(PrintParameters params, CMYKPixel[ ] [ ]) : CMYKPixel [ ] [ ]" style="text;strokeColor=none;fillColor=none;align=left;verticalAlign=top;spacingLeft=4;spacingRight=4;overflow=hidden;rotatable=0;points=[[0,0.5],[1,0.5]];portConstraint=eastwest;whiteSpace=wrap;html=1;" parent="aqZANyk-lZFDYj4VcKG3-5" vertex="1">
          <mxGeometry y="34" width="250" height="102" as="geometry" />
        </mxCell>
        <mxCell id="aqZANyk-lZFDYj4VcKG3-9" value="PrintJob" style="swimlane;fontStyle=1;align=center;verticalAlign=top;childLayout=stackLayout;horizontal=1;startSize=26;horizontalStack=0;resizeParent=1;resizeParentMax=0;resizeLast=0;collapsible=1;marginBottom=0;whiteSpace=wrap;html=1;" parent="1" vertex="1">
          <mxGeometry x="350" y="350" width="180" height="170" as="geometry" />
        </mxCell>
        <mxCell id="aqZANyk-lZFDYj4VcKG3-10" value="+jobID : String&lt;div&gt;+status : String&lt;/div&gt;&lt;div&gt;+parameters : PrintParameters&lt;/div&gt;" style="text;strokeColor=none;fillColor=none;align=left;verticalAlign=top;spacingLeft=4;spacingRight=4;overflow=hidden;rotatable=0;points=[[0,0.5],[1,0.5]];portConstraint=eastwest;whiteSpace=wrap;html=1;" parent="aqZANyk-lZFDYj4VcKG3-9" vertex="1">
          <mxGeometry y="26" width="180" height="64" as="geometry" />
        </mxCell>
        <mxCell id="aqZANyk-lZFDYj4VcKG3-11" value="" style="line;strokeWidth=1;fillColor=none;align=left;verticalAlign=middle;spacingTop=-1;spacingLeft=3;spacingRight=3;rotatable=0;labelPosition=right;points=[];portConstraint=eastwest;strokeColor=inherit;" parent="aqZANyk-lZFDYj4VcKG3-9" vertex="1">
          <mxGeometry y="90" width="180" height="8" as="geometry" />
        </mxCell>
        <mxCell id="aqZANyk-lZFDYj4VcKG3-12" value="+ transition()&lt;div&gt;+getState(): PrintJobState&lt;/div&gt;&lt;div&gt;+setState(state: PrintJobState)&lt;/div&gt;&lt;div&gt;-state: PrintJobState&lt;/div&gt;" style="text;strokeColor=none;fillColor=none;align=left;verticalAlign=top;spacingLeft=4;spacingRight=4;overflow=hidden;rotatable=0;points=[[0,0.5],[1,0.5]];portConstraint=eastwest;whiteSpace=wrap;html=1;" parent="aqZANyk-lZFDYj4VcKG3-9" vertex="1">
          <mxGeometry y="98" width="180" height="72" as="geometry" />
        </mxCell>
        <mxCell id="aqZANyk-lZFDYj4VcKG3-18" value="NotificationListener" style="swimlane;fontStyle=1;align=center;verticalAlign=top;childLayout=stackLayout;horizontal=1;startSize=26;horizontalStack=0;resizeParent=1;resizeParentMax=0;resizeLast=0;collapsible=1;marginBottom=0;whiteSpace=wrap;html=1;" parent="1" vertex="1">
          <mxGeometry x="560" y="296" width="190" height="60" as="geometry" />
        </mxCell>
        <mxCell id="aqZANyk-lZFDYj4VcKG3-20" value="" style="line;strokeWidth=1;fillColor=none;align=left;verticalAlign=middle;spacingTop=-1;spacingLeft=3;spacingRight=3;rotatable=0;labelPosition=right;points=[];portConstraint=eastwest;strokeColor=inherit;" parent="aqZANyk-lZFDYj4VcKG3-18" vertex="1">
          <mxGeometry y="26" width="190" height="8" as="geometry" />
        </mxCell>
        <mxCell id="aqZANyk-lZFDYj4VcKG3-21" value="+oneEvent (event: EngineEvent)" style="text;strokeColor=none;fillColor=none;align=left;verticalAlign=top;spacingLeft=4;spacingRight=4;overflow=hidden;rotatable=0;points=[[0,0.5],[1,0.5]];portConstraint=eastwest;whiteSpace=wrap;html=1;" parent="aqZANyk-lZFDYj4VcKG3-18" vertex="1">
          <mxGeometry y="34" width="190" height="26" as="geometry" />
        </mxCell>
        <mxCell id="aqZANyk-lZFDYj4VcKG3-23" value="Controller" style="rounded=0;whiteSpace=wrap;html=1;" parent="1" vertex="1">
          <mxGeometry x="380" y="50" width="120" height="60" as="geometry" />
        </mxCell>
        <mxCell id="aqZANyk-lZFDYj4VcKG3-26" value="" style="rounded=0;whiteSpace=wrap;html=1;" parent="1" vertex="1">
          <mxGeometry x="810" y="40" width="720" height="720" as="geometry" />
        </mxCell>
        <mxCell id="aqZANyk-lZFDYj4VcKG3-27" value="Engine" style="rounded=0;whiteSpace=wrap;html=1;" parent="1" vertex="1">
          <mxGeometry x="1130" y="50" width="120" height="60" as="geometry" />
        </mxCell>
        <mxCell id="aqZANyk-lZFDYj4VcKG3-28" value="InkManager" style="swimlane;fontStyle=1;align=center;verticalAlign=top;childLayout=stackLayout;horizontal=1;startSize=26;horizontalStack=0;resizeParent=1;resizeParentMax=0;resizeLast=0;collapsible=1;marginBottom=0;whiteSpace=wrap;html=1;" parent="1" vertex="1">
          <mxGeometry x="840" y="110" width="260" height="106" as="geometry" />
        </mxCell>
        <mxCell id="aqZANyk-lZFDYj4VcKG3-30" value="" style="line;strokeWidth=1;fillColor=none;align=left;verticalAlign=middle;spacingTop=-1;spacingLeft=3;spacingRight=3;rotatable=0;labelPosition=right;points=[];portConstraint=eastwest;strokeColor=inherit;" parent="aqZANyk-lZFDYj4VcKG3-28" vertex="1">
          <mxGeometry y="26" width="260" height="8" as="geometry" />
        </mxCell>
        <mxCell id="aqZANyk-lZFDYj4VcKG3-31" value="+checkLevel() : Map&amp;lt;String,Float&amp;gt;&lt;br&gt;&lt;div&gt;+isAnyEmpty() : Boolean&lt;br&gt;+getLowColors() : List&amp;lt;String&amp;gt;&lt;/div&gt;&lt;div&gt;+consume(CMYK pixel, PrintQuality quality)&lt;/div&gt;" style="text;strokeColor=none;fillColor=none;align=left;verticalAlign=top;spacingLeft=4;spacingRight=4;overflow=hidden;rotatable=0;points=[[0,0.5],[1,0.5]];portConstraint=eastwest;whiteSpace=wrap;html=1;" parent="aqZANyk-lZFDYj4VcKG3-28" vertex="1">
          <mxGeometry y="34" width="260" height="72" as="geometry" />
        </mxCell>
        <mxCell id="aqZANyk-lZFDYj4VcKG3-40" value="Reader" style="swimlane;fontStyle=1;align=center;verticalAlign=top;childLayout=stackLayout;horizontal=1;startSize=26;horizontalStack=0;resizeParent=1;resizeParentMax=0;resizeLast=0;collapsible=1;marginBottom=0;whiteSpace=wrap;html=1;" parent="1" vertex="1">
          <mxGeometry x="990" y="246" width="160" height="90" as="geometry" />
        </mxCell>
        <mxCell id="aqZANyk-lZFDYj4VcKG3-41" value="+simulatePrint(cmykData: CMYKPixel[][])&lt;div&gt;+simulateDelay(dpi: int)&lt;/div&gt;" style="text;strokeColor=none;fillColor=none;align=left;verticalAlign=top;spacingLeft=4;spacingRight=4;overflow=hidden;rotatable=0;points=[[0,0.5],[1,0.5]];portConstraint=eastwest;whiteSpace=wrap;html=1;" parent="aqZANyk-lZFDYj4VcKG3-40" vertex="1">
          <mxGeometry y="26" width="160" height="64" as="geometry" />
        </mxCell>
        <mxCell id="lUx1G_PEGmZgEHRu-ZWr-2" value="&lt;p style=&quot;margin:0px;margin-top:4px;text-align:center;&quot;&gt;&lt;i&gt;&amp;lt;&amp;lt;Interface&amp;gt;&amp;gt;&lt;/i&gt;&lt;br&gt;&lt;span style=&quot;font-weight: 700;&quot;&gt;EngineObserver&lt;/span&gt;&lt;/p&gt;&lt;hr size=&quot;1&quot; style=&quot;border-style:solid;&quot;&gt;&lt;p style=&quot;margin:0px;margin-left:4px;&quot;&gt;+onEvent(event: EngineEvent)&lt;/p&gt;" style="verticalAlign=top;align=left;overflow=fill;html=1;whiteSpace=wrap;" parent="1" vertex="1">
          <mxGeometry x="1075" y="642" width="190" height="68" as="geometry" />
        </mxCell>
        <mxCell id="J-bN6tYyU2onE2LakkBq-1" value="JobMonitor" style="swimlane;fontStyle=1;align=center;verticalAlign=top;childLayout=stackLayout;horizontal=1;startSize=26;horizontalStack=0;resizeParent=1;resizeParentMax=0;resizeLast=0;collapsible=1;marginBottom=0;whiteSpace=wrap;html=1;" parent="1" vertex="1">
          <mxGeometry x="1310" y="520" width="160" height="130" as="geometry" />
        </mxCell>
        <mxCell id="J-bN6tYyU2onE2LakkBq-2" value="+registerObserver(obs: EngineObserver)&lt;br&gt;+removeObserver(obs: EngineObserver)&lt;br&gt;+notifyObservers(event: EngineEvent)&lt;div&gt;&lt;br/&gt;&lt;/div&gt;" style="text;strokeColor=none;fillColor=none;align=left;verticalAlign=top;spacingLeft=4;spacingRight=4;overflow=hidden;rotatable=0;points=[[0,0.5],[1,0.5]];portConstraint=eastwest;whiteSpace=wrap;html=1;" parent="J-bN6tYyU2onE2LakkBq-1" vertex="1">
          <mxGeometry y="26" width="160" height="104" as="geometry" />
        </mxCell>
        <mxCell id="J-bN6tYyU2onE2LakkBq-13" value="PrintHead" style="swimlane;fontStyle=1;align=center;verticalAlign=top;childLayout=stackLayout;horizontal=1;startSize=26;horizontalStack=0;resizeParent=1;resizeParentMax=0;resizeLast=0;collapsible=1;marginBottom=0;whiteSpace=wrap;html=1;" parent="1" vertex="1">
          <mxGeometry x="1180" y="160" width="190" height="332" as="geometry" />
        </mxCell>
        <mxCell id="J-bN6tYyU2onE2LakkBq-14" value="- color : string&lt;div&gt;- inkLevel : double&lt;/div&gt;" style="text;strokeColor=none;fillColor=none;align=left;verticalAlign=top;spacingLeft=4;spacingRight=4;overflow=hidden;rotatable=0;points=[[0,0.5],[1,0.5]];portConstraint=eastwest;whiteSpace=wrap;html=1;" parent="J-bN6tYyU2onE2LakkBq-13" vertex="1">
          <mxGeometry y="26" width="190" height="44" as="geometry" />
        </mxCell>
        <mxCell id="J-bN6tYyU2onE2LakkBq-15" value="" style="line;strokeWidth=1;fillColor=none;align=left;verticalAlign=middle;spacingTop=-1;spacingLeft=3;spacingRight=3;rotatable=0;labelPosition=right;points=[];portConstraint=eastwest;strokeColor=inherit;" parent="J-bN6tYyU2onE2LakkBq-13" vertex="1">
          <mxGeometry y="70" width="190" height="60" as="geometry" />
        </mxCell>
        <mxCell id="J-bN6tYyU2onE2LakkBq-16" value="+PrintHead(String color, double, intialLevel)&lt;br&gt;+getColor() : String&lt;div&gt;+getInkLevel() : double&lt;br&gt;+isLow() : boolean&lt;/div&gt;&lt;div&gt;+isEmpty() : boolean&lt;/div&gt;&lt;div&gt;+consumeInk(double amount)&lt;/div&gt;" style="text;strokeColor=none;fillColor=none;align=left;verticalAlign=top;spacingLeft=4;spacingRight=4;overflow=hidden;rotatable=0;points=[[0,0.5],[1,0.5]];portConstraint=eastwest;whiteSpace=wrap;html=1;" parent="J-bN6tYyU2onE2LakkBq-13" vertex="1">
          <mxGeometry y="130" width="190" height="202" as="geometry" />
        </mxCell>
        <mxCell id="W_5tvYY-Ro_6gK347ceu-1" value="&lt;p style=&quot;margin:0px;margin-top:4px;text-align:center;&quot;&gt;&lt;i&gt;&amp;lt;&amp;lt;Interface&amp;gt;&amp;gt;&lt;/i&gt;&lt;br&gt;&lt;b&gt;PrintJobState&lt;/b&gt;&lt;/p&gt;&lt;hr size=&quot;1&quot; style=&quot;border-style:solid;&quot;&gt;&lt;p style=&quot;margin:0px;margin-left:4px;&quot;&gt;+getStateName(): String&lt;/p&gt;&lt;p style=&quot;margin:0px;margin-left:4px;&quot;&gt;+handle(job : PrintJob)&lt;/p&gt;" style="verticalAlign=top;align=left;overflow=fill;html=1;whiteSpace=wrap;" parent="1" vertex="1">
          <mxGeometry x="340" y="590" width="190" height="89" as="geometry" />
        </mxCell>
        <mxCell id="oNJjBm6wGc0VrKbqEl0M-1" value="NewState" style="rounded=0;whiteSpace=wrap;html=1;" parent="1" vertex="1">
          <mxGeometry x="110" y="544" width="120" height="30" as="geometry" />
        </mxCell>
        <mxCell id="oNJjBm6wGc0VrKbqEl0M-2" value="ErrorState" style="rounded=0;whiteSpace=wrap;html=1;" parent="1" vertex="1">
          <mxGeometry x="110" y="670" width="120" height="30" as="geometry" />
        </mxCell>
        <mxCell id="oNJjBm6wGc0VrKbqEl0M-3" value="PrintedState" style="rounded=0;whiteSpace=wrap;html=1;" parent="1" vertex="1">
          <mxGeometry x="110" y="630" width="120" height="30" as="geometry" />
        </mxCell>
        <mxCell id="oNJjBm6wGc0VrKbqEl0M-4" value="ActiveState" style="rounded=0;whiteSpace=wrap;html=1;" parent="1" vertex="1">
          <mxGeometry x="110" y="590" width="120" height="30" as="geometry" />
        </mxCell>
        <mxCell id="oNJjBm6wGc0VrKbqEl0M-7" value="PaperTray" style="swimlane;fontStyle=1;align=center;verticalAlign=top;childLayout=stackLayout;horizontal=1;startSize=26;horizontalStack=0;resizeParent=1;resizeParentMax=0;resizeLast=0;collapsible=1;marginBottom=0;whiteSpace=wrap;html=1;" parent="1" vertex="1">
          <mxGeometry x="860" y="552" width="160" height="90" as="geometry" />
        </mxCell>
        <mxCell id="oNJjBm6wGc0VrKbqEl0M-8" value="+hasPaper() : Boolean&lt;br&gt;+consumeSheet()" style="text;strokeColor=none;fillColor=none;align=left;verticalAlign=top;spacingLeft=4;spacingRight=4;overflow=hidden;rotatable=0;points=[[0,0.5],[1,0.5]];portConstraint=eastwest;whiteSpace=wrap;html=1;" parent="oNJjBm6wGc0VrKbqEl0M-7" vertex="1">
          <mxGeometry y="26" width="160" height="64" as="geometry" />
        </mxCell>
        <mxCell id="oNJjBm6wGc0VrKbqEl0M-16" value="CMYKPixel" style="swimlane;fontStyle=1;align=center;verticalAlign=top;childLayout=stackLayout;horizontal=1;startSize=26;horizontalStack=0;resizeParent=1;resizeParentMax=0;resizeLast=0;collapsible=1;marginBottom=0;whiteSpace=wrap;html=1;" parent="1" vertex="1">
          <mxGeometry x="860" y="356" width="180" height="170" as="geometry" />
        </mxCell>
        <mxCell id="oNJjBm6wGc0VrKbqEl0M-17" value="cyan : double&lt;br&gt;magenta&amp;nbsp;: double&lt;br&gt;yellow&amp;nbsp;: double&lt;br&gt;black&amp;nbsp;: double&lt;div&gt;&lt;br&gt;&lt;/div&gt;" style="text;strokeColor=none;fillColor=none;align=left;verticalAlign=top;spacingLeft=4;spacingRight=4;overflow=hidden;rotatable=0;points=[[0,0.5],[1,0.5]];portConstraint=eastwest;whiteSpace=wrap;html=1;" parent="oNJjBm6wGc0VrKbqEl0M-16" vertex="1">
          <mxGeometry y="26" width="180" height="64" as="geometry" />
        </mxCell>
        <mxCell id="oNJjBm6wGc0VrKbqEl0M-18" value="" style="line;strokeWidth=1;fillColor=none;align=left;verticalAlign=middle;spacingTop=-1;spacingLeft=3;spacingRight=3;rotatable=0;labelPosition=right;points=[];portConstraint=eastwest;strokeColor=inherit;" parent="oNJjBm6wGc0VrKbqEl0M-16" vertex="1">
          <mxGeometry y="90" width="180" height="8" as="geometry" />
        </mxCell>
        <mxCell id="oNJjBm6wGc0VrKbqEl0M-19" value="+getC() : double&lt;br&gt;+getM() : double&lt;br&gt;+getY() : double&lt;br&gt;+getK() : double" style="text;strokeColor=none;fillColor=none;align=left;verticalAlign=top;spacingLeft=4;spacingRight=4;overflow=hidden;rotatable=0;points=[[0,0.5],[1,0.5]];portConstraint=eastwest;whiteSpace=wrap;html=1;" parent="oNJjBm6wGc0VrKbqEl0M-16" vertex="1">
          <mxGeometry y="98" width="180" height="72" as="geometry" />
        </mxCell>
        <mxCell id="UHf2bawF54Pzyie82Pw0-1" value="Extends" style="endArrow=block;endSize=16;endFill=0;html=1;rounded=0;entryX=0.006;entryY=0.422;entryDx=0;entryDy=0;entryPerimeter=0;" parent="1" target="W_5tvYY-Ro_6gK347ceu-1" edge="1">
          <mxGeometry width="160" relative="1" as="geometry">
            <mxPoint x="230" y="600" as="sourcePoint" />
            <mxPoint x="390" y="600" as="targetPoint" />
          </mxGeometry>
        </mxCell>
        <mxCell id="UHf2bawF54Pzyie82Pw0-2" value="Extends" style="endArrow=block;endSize=16;endFill=0;html=1;rounded=0;entryX=0.011;entryY=0.396;entryDx=0;entryDy=0;entryPerimeter=0;exitX=1;exitY=0.5;exitDx=0;exitDy=0;" parent="1" source="oNJjBm6wGc0VrKbqEl0M-1" target="W_5tvYY-Ro_6gK347ceu-1" edge="1">
          <mxGeometry width="160" relative="1" as="geometry">
            <mxPoint x="290" y="562" as="sourcePoint" />
            <mxPoint x="401" y="590" as="targetPoint" />
          </mxGeometry>
        </mxCell>
        <mxCell id="UHf2bawF54Pzyie82Pw0-3" value="Extends" style="endArrow=block;endSize=16;endFill=0;html=1;rounded=0;entryX=0;entryY=0.5;entryDx=0;entryDy=0;" parent="1" target="W_5tvYY-Ro_6gK347ceu-1" edge="1">
          <mxGeometry width="160" relative="1" as="geometry">
            <mxPoint x="230" y="690" as="sourcePoint" />
            <mxPoint x="341" y="718" as="targetPoint" />
          </mxGeometry>
        </mxCell>
        <mxCell id="UHf2bawF54Pzyie82Pw0-4" value="Extends" style="endArrow=block;endSize=16;endFill=0;html=1;rounded=0;exitX=1;exitY=0.5;exitDx=0;exitDy=0;" parent="1" source="oNJjBm6wGc0VrKbqEl0M-3" edge="1">
          <mxGeometry width="160" relative="1" as="geometry">
            <mxPoint x="330" y="700" as="sourcePoint" />
            <mxPoint x="340" y="630" as="targetPoint" />
          </mxGeometry>
        </mxCell>
        <mxCell id="tD9iRqDqdooHNSy5s_JM-1" value="" style="endArrow=block;dashed=1;endFill=0;endSize=12;html=1;rounded=0;exitX=0.498;exitY=1.038;exitDx=0;exitDy=0;exitPerimeter=0;" edge="1" parent="1">
          <mxGeometry width="160" relative="1" as="geometry">
            <mxPoint x="426.25" y="520" as="sourcePoint" />
            <mxPoint x="426" y="590" as="targetPoint" />
            <Array as="points">
              <mxPoint x="426.25" y="560" />
            </Array>
          </mxGeometry>
        </mxCell>
        <mxCell id="tD9iRqDqdooHNSy5s_JM-9" value="" style="endArrow=block;dashed=1;endFill=0;endSize=12;html=1;rounded=0;exitX=0.495;exitY=1.005;exitDx=0;exitDy=0;exitPerimeter=0;entryX=0.5;entryY=0;entryDx=0;entryDy=0;" edge="1" parent="1" source="gxD8c2a9SxIbAqhHgufa-12" target="aqZANyk-lZFDYj4VcKG3-9">
          <mxGeometry width="160" relative="1" as="geometry">
            <mxPoint x="430" y="420" as="sourcePoint" />
            <mxPoint x="590" y="420" as="targetPoint" />
          </mxGeometry>
        </mxCell>
        <mxCell id="tD9iRqDqdooHNSy5s_JM-10" value="" style="endArrow=block;dashed=1;endFill=0;endSize=12;html=1;rounded=0;exitX=1;exitY=1.005;exitDx=0;exitDy=0;exitPerimeter=0;entryX=0.5;entryY=0;entryDx=0;entryDy=0;" edge="1" parent="1" source="gxD8c2a9SxIbAqhHgufa-12" target="aqZANyk-lZFDYj4VcKG3-18">
          <mxGeometry width="160" relative="1" as="geometry">
            <mxPoint x="471" y="320" as="sourcePoint" />
            <mxPoint x="470" y="419" as="targetPoint" />
          </mxGeometry>
        </mxCell>
        <mxCell id="tD9iRqDqdooHNSy5s_JM-11" value="" style="endArrow=block;dashed=1;endFill=0;endSize=12;html=1;rounded=0;exitX=0;exitY=0.5;exitDx=0;exitDy=0;entryX=1;entryY=0.5;entryDx=0;entryDy=0;" edge="1" parent="1" source="gxD8c2a9SxIbAqhHgufa-12" target="aqZANyk-lZFDYj4VcKG3-4">
          <mxGeometry width="160" relative="1" as="geometry">
            <mxPoint x="311" y="180" as="sourcePoint" />
            <mxPoint x="310" y="279" as="targetPoint" />
          </mxGeometry>
        </mxCell>
        <mxCell id="tD9iRqDqdooHNSy5s_JM-12" value="" style="endArrow=block;dashed=1;endFill=0;endSize=12;html=1;rounded=0;entryX=1;entryY=0;entryDx=0;entryDy=0;exitX=0.5;exitY=0.995;exitDx=0;exitDy=0;exitPerimeter=0;" edge="1" parent="1" source="gxD8c2a9SxIbAqhHgufa-12" target="aqZANyk-lZFDYj4VcKG3-5">
          <mxGeometry width="160" relative="1" as="geometry">
            <mxPoint x="361" y="240" as="sourcePoint" />
            <mxPoint x="360" y="339" as="targetPoint" />
            <Array as="points">
              <mxPoint x="390" y="320" />
            </Array>
          </mxGeometry>
        </mxCell>
        <mxCell id="tD9iRqDqdooHNSy5s_JM-13" value="" style="endArrow=block;dashed=1;endFill=0;endSize=12;html=1;rounded=0;exitX=0.99;exitY=0.994;exitDx=0;exitDy=0;exitPerimeter=0;entryX=0.378;entryY=0.021;entryDx=0;entryDy=0;entryPerimeter=0;" edge="1" parent="1" source="aqZANyk-lZFDYj4VcKG3-4" target="aqZANyk-lZFDYj4VcKG3-9">
          <mxGeometry width="160" relative="1" as="geometry">
            <mxPoint x="281" y="230" as="sourcePoint" />
            <mxPoint x="440" y="350" as="targetPoint" />
          </mxGeometry>
        </mxCell>
        <mxCell id="tD9iRqDqdooHNSy5s_JM-15" value="" style="endArrow=block;dashed=1;endFill=0;endSize=12;html=1;rounded=0;exitX=0.496;exitY=0.979;exitDx=0;exitDy=0;exitPerimeter=0;entryX=0.5;entryY=0;entryDx=0;entryDy=0;" edge="1" parent="1" source="aqZANyk-lZFDYj4VcKG3-31" target="oNJjBm6wGc0VrKbqEl0M-16">
          <mxGeometry width="160" relative="1" as="geometry">
            <mxPoint x="920" y="270" as="sourcePoint" />
            <mxPoint x="1080" y="270" as="targetPoint" />
          </mxGeometry>
        </mxCell>
        <mxCell id="tD9iRqDqdooHNSy5s_JM-17" value="" style="endArrow=block;dashed=1;endFill=0;endSize=12;html=1;rounded=0;exitX=0.514;exitY=0.181;exitDx=0;exitDy=0;exitPerimeter=0;entryX=1;entryY=0.5;entryDx=0;entryDy=0;" edge="1" parent="1" source="aqZANyk-lZFDYj4VcKG3-26" target="aqZANyk-lZFDYj4VcKG3-31">
          <mxGeometry width="160" relative="1" as="geometry">
            <mxPoint x="960" y="300" as="sourcePoint" />
            <mxPoint x="1065" y="350" as="targetPoint" />
          </mxGeometry>
        </mxCell>
        <mxCell id="tD9iRqDqdooHNSy5s_JM-18" value="" style="endArrow=block;dashed=1;endFill=0;endSize=12;html=1;rounded=0;exitX=0.481;exitY=1.023;exitDx=0;exitDy=0;exitPerimeter=0;entryX=1;entryY=0;entryDx=0;entryDy=0;" edge="1" parent="1" source="aqZANyk-lZFDYj4VcKG3-41" target="oNJjBm6wGc0VrKbqEl0M-16">
          <mxGeometry width="160" relative="1" as="geometry">
            <mxPoint x="1130" y="250" as="sourcePoint" />
            <mxPoint x="1235" y="300" as="targetPoint" />
          </mxGeometry>
        </mxCell>
        <mxCell id="tD9iRqDqdooHNSy5s_JM-19" value="" style="endArrow=block;dashed=1;endFill=0;endSize=12;html=1;rounded=0;exitX=-0.012;exitY=0.139;exitDx=0;exitDy=0;exitPerimeter=0;entryX=0.5;entryY=0;entryDx=0;entryDy=0;" edge="1" parent="1" source="J-bN6tYyU2onE2LakkBq-2" target="lUx1G_PEGmZgEHRu-ZWr-2">
          <mxGeometry width="160" relative="1" as="geometry">
            <mxPoint x="1250" y="560" as="sourcePoint" />
            <mxPoint x="1355" y="610" as="targetPoint" />
          </mxGeometry>
        </mxCell>
      </root>
    </mxGraphModel>
  </diagram>
</mxfile>
